Coordinates
version=1
nRows=16
nColumns=40
inDegrees=yes

Units are S.I. units (second, meters, Newtons, ...)
Angles are in degrees.

endheader
time	pelvis_tilt	pelvis_list	pelvis_rotation	pelvis_tx	pelvis_ty	pelvis_tz	hip_flexion_r	hip_adduction_r	hip_rotation_r	knee_angle_r	knee_angle_r_beta	ankle_angle_r	subtalar_angle_r	mtp_angle_r	hip_flexion_l	hip_adduction_l	hip_rotation_l	knee_angle_l	knee_angle_l_beta	ankle_angle_l	subtalar_angle_l	mtp_angle_l	lumbar_extension	lumbar_bending	lumbar_rotation	arm_flex_r	arm_add_r	arm_rot_r	elbow_flex_r	pro_sup_r	wrist_flex_r	wrist_dev_r	arm_flex_l	arm_add_l	arm_rot_l	elbow_flex_l	pro_sup_l	wrist_flex_l	wrist_dev_l
     44.40000000	     -4.56710667	     -2.91712445	     12.09089739	      1.09448829	      0.92142326	      0.56962897	      6.39283663	      2.08383384	    -11.56539599	     20.72308924	     20.72308924	     19.86944973	     -2.19110592	     -0.88192512	     27.31798726	     -9.99196115	      2.63979177	     19.87898510	     19.87898510	      0.86196905	     -0.67776905	      1.41689300	     -8.83257462	      4.27431865	      4.39943569	     67.08311326	    -17.68156852	      1.21014333	    106.51846148	     44.35761509	      0.00000000	      0.00000000	    -21.68710105	    -10.02111584	     33.78855257	     32.48272119	     43.36340052	      0.00000000	      0.00000000
     44.42071429	     -4.52617025	     -3.15243788	     12.10109756	      1.09436684	      0.92019858	      0.56649908	      6.03258679	      2.20653567	    -11.54779977	     20.67547248	     20.67547248	     20.20420325	     -2.18879799	     -0.97568056	     27.04210936	    -10.00906110	      2.68332284	     20.03409420	     20.03409420	      1.69329367	     -0.92869865	      1.00575685	     -8.72276559	      4.34089132	      4.44508687	     66.76527355	    -17.45459455	      1.28007608	    106.55004676	     44.35618319	      0.00000000	      0.00000000	    -21.29583292	    -10.36201119	     33.72226517	     32.47452191	     43.38042440	      0.00000000	      0.00000000
     44.44142857	     -4.46437930	     -3.38492143	     12.08648723	      1.09428138	      0.91913903	      0.56314302	      5.61976637	      2.31890821	    -11.49050813	     20.56459505	     20.56459505	     20.46930010	     -2.14719878	     -1.03176444	     26.80674888	    -10.03735767	      2.79466065	     20.37270786	     20.37270786	      2.57851451	     -1.22821166	      0.52742467	     -8.65873539	      4.43067914	      4.43333954	     66.33339917	    -17.24211228	      1.27749445	    106.60939095	     44.35631604	      0.00000000	      0.00000000	    -20.76859986	    -10.68778065	     33.63928591	     32.48872047	     43.40259306	      0.00000000	      0.00000000
     44.46214286	     -4.39913445	     -3.63401906	     12.07327428	      1.09419966	      0.91826075	      0.55955043	      5.18900219	      2.43860917	    -11.43531339	     20.41347912	     20.41347912	     20.67135007	     -2.10694881	     -1.05517568	     26.66873301	    -10.07922297	      2.94741809	     20.89246103	     20.89246103	      3.42887167	     -1.62861554	      0.03334342	     -8.62360406	      4.52945276	      4.46068731	     65.79154524	    -17.06739124	      1.14019373	    106.69605612	     44.36136571	      0.00000000	      0.00000000	    -20.12612898	    -11.03459823	     33.52525445	     32.50011849	     43.43379653	      0.00000000	      0.00000000
     44.48285714	     -4.39030661	     -3.76570961	     12.05351129	      1.09405692	      0.91766651	      0.55564380	      4.85112793	      2.37901503	    -11.35735243	     20.37356891	     20.37356891	     20.82918369	     -2.10193669	     -1.08460215	     26.50401858	     -9.98510060	      3.08497107	     21.30481009	     21.30481009	      4.17195670	     -1.97163003	     -0.32210781	     -8.58306586	      4.51263357	      4.44355736	     65.30868598	    -16.84654278	      1.15792398	    106.66260580	     44.36225048	      0.00000000	      0.00000000	    -19.30181725	    -11.48096794	     33.36886858	     32.55895787	     43.46687270	      0.00000000	      0.00000000
     44.50357143	     -4.36760402	     -3.87773065	     11.96465435	      1.09391812	      0.91737837	      0.55153129	      4.47887797	      2.28303646	    -11.28323688	     20.29670617	     20.29670617	     20.88857530	     -2.05268040	     -1.07707113	     26.40727520	     -9.87463891	      3.20644523	     21.88843608	     21.88843608	      4.85067930	     -2.46975121	     -0.63438978	     -8.57417208	      4.52338332	      4.48704730	     64.74219582	    -16.66862367	      1.13045846	    106.54825721	     44.36698226	      0.00000000	      0.00000000	    -18.40096095	    -11.92071611	     33.18284008	     32.63677489	     43.50551579	      0.00000000	      0.00000000
     44.52428571	     -4.36293168	     -4.10132934	     11.84665293	      1.09382165	      0.91726562	      0.54719972	      4.07511426	      2.27636264	    -11.26905537	     20.07013876	     20.07013876	     20.81676827	     -1.81129349	     -1.03973432	     26.47553503	     -9.81271918	      3.63800421	     22.68584740	     22.68584740	      5.46839031	     -3.39621240	     -0.68139026	     -8.47213017	      4.62585507	      4.84979615	     64.09831814	    -16.88430470	      0.56775581	    106.22351678	     44.40189220	      0.00000000	      0.00000000	    -17.37934239	    -12.30421941	     32.83842570	     32.66626826	     43.58079649	      0.00000000	      0.00000000
     44.54500000	     -4.44460667	     -4.09104999	     11.65539245	      1.09361763	      0.91748601	      0.54260475	      3.79243932	      1.97250404	    -11.14947704	     19.98394605	     19.98394605	     20.75568484	     -1.70124049	     -1.00675774	     26.35902925	     -9.55771481	      3.62870966	     23.09130415	     23.09130415	      5.94398888	     -3.79650571	     -0.82733181	     -8.47144424	      4.55414884	      4.88920157	     63.66389370	    -16.63701675	      0.64246254	    106.01684048	     44.40618949	      0.00000000	      0.00000000	    -16.27737803	    -12.78722586	     32.60693957	     32.78793466	     43.62727748	      0.00000000	      0.00000000
     44.56571429	     -4.46148534	     -4.17188809	     11.39551162	      1.09356183	      0.91794725	      0.53782399	      3.36351649	      1.73534755	    -11.20711791	     19.72069144	     19.72069144	     20.58571310	     -1.19464697	     -1.01138738	     26.26914888	     -9.34105888	      3.90267734	     23.67413019	     23.67413019	      6.43298155	     -4.78069010	     -0.54555870	     -8.40714515	      4.60506788	      5.35952556	     63.12465212	    -16.93286860	      0.23516249	    105.05027490	     44.45589698	      0.00000000	      0.00000000	    -15.08010085	    -13.16217026	     32.11519614	     32.83182401	     43.72491189	      0.00000000	      0.00000000
     44.58642857	     -4.54949473	     -4.15810661	     11.06895003	      1.09355758	      0.91850573	      0.53302584	      3.07698131	      1.38758651	    -11.04198038	     19.60759676	     19.60759676	     20.38936903	     -0.92722769	     -0.96458826	     26.11415857	     -9.10543618	      3.80244886	     24.05056690	     24.05056690	      6.78521930	     -5.20603499	     -0.57132808	     -8.31422280	      4.56081987	      5.46883164	     62.71677547	    -16.69327777	      0.32617803	    104.63633009	     44.46644883	      0.00000000	      0.00000000	    -13.93205334	    -13.58195506	     31.83903472	     32.96907691	     43.77925294	      0.00000000	      0.00000000
     44.60714286	     -4.59251070	     -4.18657731	     10.69416417	      1.09365855	      0.91930552	      0.52800778	      2.64359738	      1.01994340	    -11.20921761	     19.30133265	     19.30133265	     20.09321460	     -0.01214695	     -1.09898633	     25.85510071	     -8.83921952	      3.95640705	     24.35872865	     24.35872865	      7.25471052	     -6.08615268	      0.04710751	     -8.16701841	      4.56229137	      5.92387959	     62.32662958	    -17.04183295	     -0.10314836	    102.70349718	     44.55022881	      0.00000000	      0.00000000	    -12.61914815	    -13.81843869	     31.07450653	     32.87627109	     43.92295372	      0.00000000	      0.00000000
     44.62785714	     -4.65790615	     -4.18728235	     10.26452712	      1.09381124	      0.92012530	      0.52301344	      2.30780323	      0.61868140	    -11.24690117	     19.12662467	     19.12662467	     19.77356001	      0.68142726	     -1.25840200	     25.57931344	     -8.62230677	      3.78706538	     24.61654791	     24.61654791	      7.72565026	     -6.56088686	      0.48173033	     -8.01784842	      4.56841732	      6.04985147	     61.85680679	    -16.90368681	     -0.21569991	    101.08586110	     44.61296029	      0.00000000	      0.00000000	    -11.40401882	    -13.99859395	     30.30708976	     32.73899205	     44.06503767	      0.00000000	      0.00000000
     44.64857143	     -4.72770931	     -4.22003088	      9.78757199	      1.09401589	      0.92090602	      0.51811105	      2.06555962	      0.27825179	    -11.03707011	     19.08394918	     19.08394918	     19.47297172	      1.02733100	     -1.24848678	     25.29366817	     -8.48640095	      3.46706256	     24.84169952	     24.84169952	      8.07879604	     -6.88100828	      0.47946937	     -7.90615698	      4.64537699	      6.08391513	     61.16481704	    -16.58843398	     -0.06745144	    100.37582864	     44.63003137	      0.00000000	      0.00000000	    -10.19179903	    -14.28193268	     29.98009111	     32.89381342	     44.12905709	      0.00000000	      0.00000000
     44.66928571	     -4.76219806	     -4.21379091	      9.31054093	      1.09428720	      0.92181930	      0.51302362	      1.74418814	     -0.20979590	    -11.30546849	     18.98314466	     18.98314466	     18.97715683	      2.15456222	     -1.99723694	     24.89674750	     -8.29056537	      3.14939967	     24.98490394	     24.98490394	      8.73014042	     -7.11736476	      1.30017441	     -7.67984573	      4.67619820	      5.78019051	     60.78858991	    -15.88864212	     -0.45946611	     96.91044748	     44.77147129	      0.00000000	      0.00000000	     -8.95788933	    -14.02706718	     28.28007829	     31.98639668	     44.42589968	      0.00000000	      0.00000000
     44.69000000	     -4.81491391	     -4.23584886	      8.81599503	      1.09465727	      0.92278964	      0.50811735	      1.48961701	     -0.57006558	    -11.11750696	     18.92982256	     18.92982256	     18.54576099	      2.54323499	     -2.09336249	     24.41832475	     -8.16724678	      2.69230369	     24.91853988	     24.91853988	      9.09157639	     -7.21404621	      1.36546367	     -7.49767461	      4.71792076	      5.88252645	     59.58887481	    -16.02177527	     -0.53891082	     95.40556375	     44.82258383	      0.00000000	      0.00000000	     -7.59459084	    -14.21530264	     27.61884996	     32.17111381	     44.54543481	      0.00000000	      0.00000000
     44.71071429	     -4.82820698	     -4.25111436	      8.31629742	      1.09500143	      0.92373562	      0.50316290	      1.25881952	     -0.99427698	    -11.10753010	     18.97448419	     18.97448419	     17.90321167	      3.16906858	     -3.02706078	     23.92333927	     -8.03671705	      2.20215647	     24.91528085	     24.91528085	      9.59054096	     -7.26977917	      1.72373882	     -7.31300462	      4.81546620	      5.37972951	     58.55488233	    -15.10151592	     -0.84284659	     92.58349384	     44.94101455	      0.00000000	      0.00000000	     -6.25474779	    -13.85579991	     25.50201506	     31.31865605	     44.89626585	      0.00000000	      0.00000000
